<?xml version="1.0" encoding="UTF-8" standalone="no"?>
<svg
   xmlns:dc="http://purl.org/dc/elements/1.1/"
   xmlns:cc="http://creativecommons.org/ns#"
   xmlns:rdf="http://www.w3.org/1999/02/22-rdf-syntax-ns#"
   xmlns:svg="http://www.w3.org/2000/svg"
   xmlns="http://www.w3.org/2000/svg"
   xmlns:sodipodi="http://sodipodi.sourceforge.net/DTD/sodipodi-0.dtd"
   xmlns:inkscape="http://www.inkscape.org/namespaces/inkscape"
   width="1000"
   height="1119.9001"
   viewBox="0 0 264.5833 296.30693"
   version="1.1"
   id="svg8"
   inkscape:version="1.0.2 (e86c870879, 2021-01-15)"
   sodipodi:docname="new-logo-small.svg"
   inkscape:export-filename="/home/ssmg/SSMG/assets/new-logo-small-white.png"
   inkscape:export-xdpi="96"
   inkscape:export-ydpi="96">
  <defs
     id="defs2" />
  <sodipodi:namedview
     id="base"
     pagecolor="#ffffff"
     bordercolor="#666666"
     borderopacity="1.0"
     inkscape:pageopacity="0.0"
     inkscape:pageshadow="2"
     inkscape:zoom="0.31200943"
     inkscape:cx="342.01025"
     inkscape:cy="408.91903"
     inkscape:document-units="mm"
     inkscape:current-layer="layer2"
     inkscape:document-rotation="0"
     showgrid="false"
     inkscape:window-width="1499"
     inkscape:window-height="964"
     inkscape:window-x="210"
     inkscape:window-y="30"
     inkscape:window-maximized="0"
     units="px"
     fit-margin-top="0"
     fit-margin-left="0"
     fit-margin-right="0"
     fit-margin-bottom="0" />
  <metadata
     id="metadata5">
    <rdf:RDF>
      <cc:Work
         rdf:about="">
        <dc:format>image/svg+xml</dc:format>
        <dc:type
           rdf:resource="http://purl.org/dc/dcmitype/StillImage" />
        <dc:title></dc:title>
      </cc:Work>
    </rdf:RDF>
  </metadata>
  <g
     inkscape:groupmode="layer"
     id="layer2"
     inkscape:label="white"
     style="display:inline">
    <g
       aria-label="S"
       id="g835"
       style="font-style:normal;font-weight:normal;font-size:50.8px;line-height:1.25;font-family:sans-serif;fill:#ffffff;fill-opacity:1;stroke:none;stroke-width:0.264583"
       transform="translate(-0.38391262,-17.864553)"
       inkscape:export-xdpi="96"
       inkscape:export-ydpi="96">
      <path
         d="m 125.51576,227.8129 q 7.27,-1.32183 7.27,-7.27 0,-6.16847 -3.96545,-13.65875 -3.74514,-7.7106 -11.23544,-14.53997 -19.606923,-17.6242 -53.092912,-17.6242 -16.522692,0 -30.842355,5.50755 -15.200878,-7.71058 -24.2332832,-24.45358 -9.03240487,-16.74299 -9.03240487,-36.12961 0,-50.669594 42.29809107,-78.207419 36.349922,-23.572368 89.663144,-23.572368 39.65446,0 66.75168,8.591802 27.09721,8.371496 44.2808,21.589647 5.06697,14.539965 5.06697,30.181451 0,15.641479 -4.18575,28.419027 -4.18575,12.77755 -12.11664,20.48814 -7.49029,-5.50757 -27.09722,-11.23543 -19.60693,-5.72787 -35.68901,-5.72787 -16.08209,0 -21.58965,1.98273 -5.28726,1.98272 -5.28726,6.16847 0,1.98272 0.66086,3.74514 7.7106,-1.98271 19.82724,-1.98271 42.95899,0 70.05621,20.26783 31.94387,24.23327 31.94387,72.69984 0,42.7387 -34.5875,70.93741 -37.45144,30.18145 -100.67827,30.18145 -34.807803,0 -60.362898,-5.28725 Q 43.783515,303.81725 19.550238,290.81942 3.0275455,266.80641 3.0275455,242.13257 q 0,-24.8942 16.9632975,-41.19659 16.963297,-16.30239 41.637184,-16.30239 24.894193,0 40.535673,10.13392 15.86178,10.13391 23.35206,33.04539 z"
         style="font-style:normal;font-variant:normal;font-weight:normal;font-stretch:normal;font-size:50.8px;font-family:Modak;-inkscape-font-specification:Modak;fill:#ffffff;stroke-width:2.34989"
         id="path833" />
    </g>
  </g>
</svg>
